<svg xmlns="http://www.w3.org/2000/svg" viewBox="0 0 128 128" role="img" aria-labelledby="title desc">
  <title id="title">Zuo Group logo</title>
  <desc id="desc">A letter Z inside circular orbital lines.</desc>
  <path d="M28 92A50 50 0 0 1 99 23" fill="none" stroke="#111111" stroke-width="4.2" stroke-linecap="round"/>
  <path d="M103 51A50 50 0 0 1 88 104 50 50 0 0 1 41 108" fill="none" stroke="#111111" stroke-width="4.2" stroke-linecap="round"/>
  <path d="M104 43c15 4 19 12 11 25-12 20-50 40-81 45-20 3-29-2-21-13 11-16 50-31 84-53" fill="none" stroke="#1057d8" stroke-width="5.4" stroke-linecap="round"/>
  <text x="64" y="87" text-anchor="middle" font-family="Georgia, 'Times New Roman', serif" font-size="76" font-weight="700" fill="#050505">Z</text>
  <path d="M20 98c13-14 51-28 83-48" fill="none" stroke="#1057d8" stroke-width="5.4" stroke-linecap="round"/>
  <circle cx="103" cy="42" r="10.5" fill="#1057d8"/>
</svg>
